#tb 0: 1/25
#media_type 0: video
#codec_id 0: rawvideo
#dimensions 0: 1920x1080
#sar 0: 0/1
0,          0,          0,        1,  6220800, 0x1df58ce9
0,          1,          1,        1,  6220800, 0x8f2859ce
0,          2,          2,        1,  6220800, 0x229cc7ff
0,          3,          3,        1,  6220800, 0x73e86984
0,          4,          4,        1,  6220800, 0xb6d4504b
0,          5,          5,        1,  6220800, 0x4e7d4883
0,          6,          6,        1,  6220800, 0xbec3f0f7
0,          7,          7,        1,  6220800, 0x1d9af065
0,          8,          8,        1,  6220800, 0x44851549
0,          9,          9,        1,  6220800, 0xfcf8728e
